<svg xmlns="http://www.w3.org/2000/svg" viewBox="0 0 24 24" fill="#000">
  <rect x="4" y="9" width="2.6" height="2.4" rx="0.3"/>
  <rect x="7.2" y="9" width="2.6" height="2.4" rx="0.3"/>
  <rect x="10.4" y="9" width="2.6" height="2.4" rx="0.3"/>
  <rect x="13.6" y="9" width="2.6" height="2.4" rx="0.3"/>
  <rect x="7.2" y="6" width="2.6" height="2.4" rx="0.3"/>
  <rect x="10.4" y="6" width="2.6" height="2.4" rx="0.3"/>
  <rect x="10.4" y="3" width="2.6" height="2.4" rx="0.3"/>
  <path d="M1.5 12.2h16.9c.5-1 .5-2.3-.2-3.3l.8-.6c.9.7 1.3 1.6 1.4 2.6.8-.4 1.8-.4 2.6 0l-.3.9c-.7.5-1.6.7-2.5.5C19.1 17.2 15 20.5 9.6 20.5 4.9 20.5 1.9 17.6 1.5 12.2z"/>
</svg>
